<svg width="57" height="58" viewBox="0 0 57 58" fill="none" xmlns="http://www.w3.org/2000/svg">
<path d="M38.7071 30.6679C38.3166 30.2774 37.6834 30.2774 37.2929 30.6679C36.9024 31.0584 36.9024 31.6916 37.2929 32.0821L38.7071 30.6679ZM45.125 38.5L45.8321 39.2071C46.2226 38.8166 46.2226 38.1834 45.8321 37.7929L45.125 38.5ZM37.2929 44.9179C36.9024 45.3084 36.9024 45.9416 37.2929 46.3321C37.6834 46.7226 38.3166 46.7226 38.7071 46.3321L37.2929 44.9179ZM11.875 37.5C11.3227 37.5 10.875 37.9477 10.875 38.5C10.875 39.0523 11.3227 39.5 11.875 39.5V37.5ZM18.2929 27.3321C18.6834 27.7226 19.3166 27.7226 19.7071 27.3321C20.0976 26.9416 20.0976 26.3084 19.7071 25.9179L18.2929 27.3321ZM11.875 19.5L11.1679 18.7929C10.7774 19.1834 10.7774 19.8166 11.1679 20.2071L11.875 19.5ZM19.7071 13.0821C20.0976 12.6916 20.0976 12.0584 19.7071 11.6679C19.3166 11.2774 18.6834 11.2774 18.2929 11.6679L19.7071 13.0821ZM45.125 20.5C45.6773 20.5 46.125 20.0523 46.125 19.5C46.125 18.9477 45.6773 18.5 45.125 18.5V20.5ZM37.2929 32.0821L44.4179 39.2071L45.8321 37.7929L38.7071 30.6679L37.2929 32.0821ZM44.4179 37.7929L37.2929 44.9179L38.7071 46.3321L45.8321 39.2071L44.4179 37.7929ZM11.875 39.5H45.125V37.5H11.875V39.5ZM19.7071 25.9179L12.5821 18.7929L11.1679 20.2071L18.2929 27.3321L19.7071 25.9179ZM12.5821 20.2071L19.7071 13.0821L18.2929 11.6679L11.1679 18.7929L12.5821 20.2071ZM45.125 18.5H11.875V20.5H45.125V18.5Z" fill="#5F5F5F"/>
</svg>
