<svg width="501" height="31" viewBox="0 0 501 31" fill="none" xmlns="http://www.w3.org/2000/svg">
<path d="M135.1 18.3682H138.896C138.819 19.6123 138.477 20.7168 137.867 21.6816C137.266 22.6465 136.424 23.3997 135.341 23.9414C134.266 24.4831 132.971 24.7539 131.456 24.7539C130.271 24.7539 129.209 24.5508 128.27 24.1445C127.33 23.7298 126.526 23.1374 125.857 22.3672C125.197 21.597 124.694 20.666 124.347 19.5742C124 18.4824 123.826 17.2594 123.826 15.9053V14.623C123.826 13.2689 124.004 12.0459 124.359 10.9541C124.723 9.85384 125.24 8.91862 125.908 8.14844C126.585 7.37826 127.394 6.78581 128.333 6.37109C129.272 5.95638 130.322 5.74902 131.481 5.74902C133.022 5.74902 134.321 6.02832 135.379 6.58691C136.445 7.14551 137.271 7.91569 137.854 8.89746C138.447 9.87923 138.802 10.9964 138.921 12.249H135.112C135.07 11.5042 134.922 10.8737 134.668 10.3574C134.414 9.83268 134.029 9.43913 133.513 9.17676C133.005 8.90592 132.328 8.77051 131.481 8.77051C130.847 8.77051 130.292 8.889 129.818 9.12598C129.344 9.36296 128.947 9.72266 128.625 10.2051C128.303 10.6875 128.062 11.2969 127.901 12.0332C127.749 12.7611 127.673 13.6159 127.673 14.5977V15.9053C127.673 16.8617 127.745 17.7038 127.889 18.4316C128.033 19.151 128.253 19.7604 128.549 20.2598C128.854 20.7507 129.243 21.123 129.717 21.377C130.199 21.6224 130.779 21.7451 131.456 21.7451C132.252 21.7451 132.908 21.6182 133.424 21.3643C133.94 21.1104 134.334 20.7337 134.604 20.2344C134.884 19.735 135.049 19.113 135.1 18.3682ZM140.584 17.7715V17.5049C140.584 16.4977 140.728 15.571 141.016 14.7246C141.303 13.8698 141.722 13.1292 142.272 12.5029C142.823 11.8766 143.5 11.39 144.304 11.043C145.108 10.6875 146.03 10.5098 147.071 10.5098C148.112 10.5098 149.039 10.6875 149.852 11.043C150.664 11.39 151.345 11.8766 151.896 12.5029C152.454 13.1292 152.877 13.8698 153.165 14.7246C153.453 15.571 153.597 16.4977 153.597 17.5049V17.7715C153.597 18.7702 153.453 19.6969 153.165 20.5518C152.877 21.3981 152.454 22.1387 151.896 22.7734C151.345 23.3997 150.668 23.8864 149.864 24.2334C149.06 24.5804 148.138 24.7539 147.097 24.7539C146.056 24.7539 145.129 24.5804 144.316 24.2334C143.512 23.8864 142.831 23.3997 142.272 22.7734C141.722 22.1387 141.303 21.3981 141.016 20.5518C140.728 19.6969 140.584 18.7702 140.584 17.7715ZM144.24 17.5049V17.7715C144.24 18.347 144.291 18.8844 144.393 19.3838C144.494 19.8831 144.655 20.3232 144.875 20.7041C145.104 21.0765 145.4 21.3685 145.764 21.5801C146.128 21.7917 146.572 21.8975 147.097 21.8975C147.604 21.8975 148.04 21.7917 148.404 21.5801C148.768 21.3685 149.06 21.0765 149.28 20.7041C149.5 20.3232 149.661 19.8831 149.763 19.3838C149.873 18.8844 149.928 18.347 149.928 17.7715V17.5049C149.928 16.9463 149.873 16.4215 149.763 15.9307C149.661 15.4313 149.496 14.9912 149.268 14.6104C149.048 14.221 148.756 13.9163 148.392 13.6963C148.028 13.4762 147.588 13.3662 147.071 13.3662C146.555 13.3662 146.115 13.4762 145.751 13.6963C145.396 13.9163 145.104 14.221 144.875 14.6104C144.655 14.9912 144.494 15.4313 144.393 15.9307C144.291 16.4215 144.24 16.9463 144.24 17.5049ZM159.424 13.6963V24.5H155.768V10.7637H159.195L159.424 13.6963ZM158.891 17.1494H157.9C157.9 16.1338 158.032 15.2197 158.294 14.4072C158.556 13.5863 158.924 12.888 159.398 12.3125C159.872 11.7285 160.435 11.2842 161.087 10.9795C161.747 10.6663 162.483 10.5098 163.296 10.5098C163.939 10.5098 164.527 10.6029 165.061 10.7891C165.594 10.9753 166.051 11.2715 166.432 11.6777C166.821 12.084 167.117 12.6214 167.32 13.29C167.532 13.9587 167.638 14.7754 167.638 15.7402V24.5H163.956V15.7275C163.956 15.1182 163.871 14.6442 163.702 14.3057C163.533 13.9671 163.283 13.7301 162.953 13.5947C162.632 13.4508 162.234 13.3789 161.76 13.3789C161.269 13.3789 160.841 13.4762 160.478 13.6709C160.122 13.8656 159.826 14.1364 159.589 14.4834C159.36 14.8219 159.187 15.2197 159.068 15.6768C158.95 16.1338 158.891 16.6247 158.891 17.1494ZM173.998 13.6963V24.5H170.342V10.7637H173.77L173.998 13.6963ZM173.465 17.1494H172.475C172.475 16.1338 172.606 15.2197 172.868 14.4072C173.131 13.5863 173.499 12.888 173.973 12.3125C174.447 11.7285 175.009 11.2842 175.661 10.9795C176.321 10.6663 177.058 10.5098 177.87 10.5098C178.513 10.5098 179.102 10.6029 179.635 10.7891C180.168 10.9753 180.625 11.2715 181.006 11.6777C181.395 12.084 181.691 12.6214 181.895 13.29C182.106 13.9587 182.212 14.7754 182.212 15.7402V24.5H178.53V15.7275C178.53 15.1182 178.446 14.6442 178.276 14.3057C178.107 13.9671 177.857 13.7301 177.527 13.5947C177.206 13.4508 176.808 13.3789 176.334 13.3789C175.843 13.3789 175.416 13.4762 175.052 13.6709C174.696 13.8656 174.4 14.1364 174.163 14.4834C173.935 14.8219 173.761 15.2197 173.643 15.6768C173.524 16.1338 173.465 16.6247 173.465 17.1494ZM191.314 24.7539C190.248 24.7539 189.292 24.5846 188.445 24.2461C187.599 23.8991 186.88 23.4209 186.287 22.8115C185.703 22.2021 185.255 21.4954 184.941 20.6914C184.628 19.8789 184.472 19.0156 184.472 18.1016V17.5938C184.472 16.5527 184.62 15.6006 184.916 14.7373C185.212 13.874 185.635 13.125 186.186 12.4902C186.744 11.8555 187.421 11.3688 188.217 11.0303C189.012 10.6833 189.91 10.5098 190.908 10.5098C191.882 10.5098 192.745 10.6706 193.498 10.9922C194.251 11.3138 194.882 11.7708 195.39 12.3633C195.906 12.9557 196.295 13.6667 196.558 14.4961C196.82 15.3171 196.951 16.2311 196.951 17.2383V18.7617H186.033V16.3242H193.358V16.0449C193.358 15.5371 193.265 15.0843 193.079 14.6865C192.901 14.2803 192.631 13.9587 192.267 13.7217C191.903 13.4847 191.437 13.3662 190.87 13.3662C190.388 13.3662 189.973 13.472 189.626 13.6836C189.279 13.8952 188.995 14.1914 188.775 14.5723C188.564 14.9531 188.403 15.4017 188.293 15.918C188.191 16.4258 188.141 16.9844 188.141 17.5938V18.1016C188.141 18.6517 188.217 19.1595 188.369 19.625C188.53 20.0905 188.754 20.4925 189.042 20.8311C189.338 21.1696 189.694 21.432 190.108 21.6182C190.532 21.8044 191.01 21.8975 191.543 21.8975C192.203 21.8975 192.817 21.7705 193.384 21.5166C193.959 21.2542 194.454 20.8607 194.869 20.3359L196.646 22.2656C196.359 22.6803 195.965 23.0781 195.466 23.459C194.975 23.8398 194.382 24.153 193.688 24.3984C192.994 24.6354 192.203 24.7539 191.314 24.7539ZM204.708 21.8975C205.157 21.8975 205.554 21.8128 205.901 21.6436C206.248 21.4658 206.519 21.2204 206.714 20.9072C206.917 20.5856 207.023 20.209 207.031 19.7773H210.472C210.463 20.7422 210.205 21.6012 209.697 22.3545C209.189 23.0993 208.508 23.6875 207.653 24.1191C206.799 24.5423 205.842 24.7539 204.784 24.7539C203.718 24.7539 202.787 24.5762 201.991 24.2207C201.204 23.8652 200.548 23.3743 200.023 22.748C199.499 22.1133 199.105 21.377 198.843 20.5391C198.58 19.6927 198.449 18.7871 198.449 17.8223V17.4541C198.449 16.4808 198.58 15.5752 198.843 14.7373C199.105 13.891 199.499 13.1546 200.023 12.5283C200.548 11.8936 201.204 11.3984 201.991 11.043C202.778 10.6875 203.701 10.5098 204.759 10.5098C205.884 10.5098 206.87 10.7256 207.717 11.1572C208.572 11.5889 209.24 12.2067 209.723 13.0107C210.214 13.8063 210.463 14.75 210.472 15.8418H207.031C207.023 15.3848 206.925 14.9701 206.739 14.5977C206.562 14.2253 206.299 13.929 205.952 13.709C205.614 13.4805 205.195 13.3662 204.695 13.3662C204.162 13.3662 203.726 13.4805 203.388 13.709C203.049 13.929 202.787 14.2337 202.601 14.623C202.414 15.0039 202.283 15.4398 202.207 15.9307C202.139 16.4131 202.105 16.9209 202.105 17.4541V17.8223C202.105 18.3555 202.139 18.8675 202.207 19.3584C202.275 19.8493 202.402 20.2852 202.588 20.666C202.783 21.0469 203.049 21.3473 203.388 21.5674C203.726 21.7874 204.166 21.8975 204.708 21.8975ZM219.32 10.7637V13.3535H211.322V10.7637H219.32ZM213.303 7.37402H216.959V20.3613C216.959 20.7591 217.01 21.0638 217.111 21.2754C217.221 21.487 217.382 21.6351 217.594 21.7197C217.805 21.7959 218.072 21.834 218.394 21.834C218.622 21.834 218.825 21.8255 219.003 21.8086C219.189 21.7832 219.346 21.7578 219.473 21.7324L219.485 24.4238C219.172 24.5254 218.834 24.6058 218.47 24.665C218.106 24.7243 217.704 24.7539 217.264 24.7539C216.46 24.7539 215.757 24.6227 215.156 24.3604C214.564 24.0895 214.107 23.6579 213.785 23.0654C213.464 22.473 213.303 21.6943 213.303 20.7295V7.37402ZM231.952 22.9512L235.596 10.7637H239.519L233.996 26.5693C233.878 26.9163 233.717 27.2887 233.514 27.6865C233.319 28.0843 233.052 28.4609 232.714 28.8164C232.384 29.1803 231.965 29.4766 231.457 29.7051C230.958 29.9336 230.344 30.0479 229.616 30.0479C229.269 30.0479 228.986 30.0267 228.766 29.9844C228.546 29.9421 228.283 29.8828 227.979 29.8066V27.1279C228.072 27.1279 228.169 27.1279 228.271 27.1279C228.372 27.1364 228.469 27.1406 228.562 27.1406C229.045 27.1406 229.438 27.0856 229.743 26.9756C230.048 26.8656 230.293 26.6963 230.479 26.4678C230.666 26.2477 230.814 25.96 230.924 25.6045L231.952 22.9512ZM230.429 10.7637L233.412 20.7168L233.933 24.5889L231.444 24.8555L226.506 10.7637H230.429ZM240.191 17.7715V17.5049C240.191 16.4977 240.335 15.571 240.623 14.7246C240.911 13.8698 241.33 13.1292 241.88 12.5029C242.43 11.8766 243.107 11.39 243.911 11.043C244.715 10.6875 245.638 10.5098 246.679 10.5098C247.72 10.5098 248.646 10.6875 249.459 11.043C250.271 11.39 250.953 11.8766 251.503 12.5029C252.062 13.1292 252.485 13.8698 252.772 14.7246C253.06 15.571 253.204 16.4977 253.204 17.5049V17.7715C253.204 18.7702 253.06 19.6969 252.772 20.5518C252.485 21.3981 252.062 22.1387 251.503 22.7734C250.953 23.3997 250.276 23.8864 249.472 24.2334C248.668 24.5804 247.745 24.7539 246.704 24.7539C245.663 24.7539 244.736 24.5804 243.924 24.2334C243.12 23.8864 242.438 23.3997 241.88 22.7734C241.33 22.1387 240.911 21.3981 240.623 20.5518C240.335 19.6969 240.191 18.7702 240.191 17.7715ZM243.848 17.5049V17.7715C243.848 18.347 243.898 18.8844 244 19.3838C244.102 19.8831 244.262 20.3232 244.482 20.7041C244.711 21.0765 245.007 21.3685 245.371 21.5801C245.735 21.7917 246.179 21.8975 246.704 21.8975C247.212 21.8975 247.648 21.7917 248.012 21.5801C248.376 21.3685 248.668 21.0765 248.888 20.7041C249.108 20.3232 249.269 19.8831 249.37 19.3838C249.48 18.8844 249.535 18.347 249.535 17.7715V17.5049C249.535 16.9463 249.48 16.4215 249.37 15.9307C249.269 15.4313 249.104 14.9912 248.875 14.6104C248.655 14.221 248.363 13.9163 247.999 13.6963C247.635 13.4762 247.195 13.3662 246.679 13.3662C246.162 13.3662 245.722 13.4762 245.358 13.6963C245.003 13.9163 244.711 14.221 244.482 14.6104C244.262 14.9912 244.102 15.4313 244 15.9307C243.898 16.4215 243.848 16.9463 243.848 17.5049ZM263.576 21.2119V10.7637H267.232V24.5H263.792L263.576 21.2119ZM263.982 18.3936L265.062 18.3682C265.062 19.2822 264.956 20.1328 264.744 20.9199C264.533 21.6986 264.215 22.3757 263.792 22.9512C263.369 23.5182 262.836 23.9626 262.192 24.2842C261.549 24.5973 260.792 24.7539 259.92 24.7539C259.251 24.7539 258.633 24.6608 258.066 24.4746C257.508 24.2799 257.025 23.9795 256.619 23.5732C256.221 23.1585 255.908 22.6296 255.68 21.9863C255.46 21.3346 255.35 20.5518 255.35 19.6377V10.7637H259.006V19.6631C259.006 20.0693 259.052 20.4121 259.146 20.6914C259.247 20.9707 259.387 21.1992 259.564 21.377C259.742 21.5547 259.95 21.6816 260.187 21.7578C260.432 21.834 260.703 21.8721 260.999 21.8721C261.752 21.8721 262.345 21.7197 262.776 21.415C263.216 21.1104 263.525 20.6956 263.703 20.1709C263.889 19.6377 263.982 19.0452 263.982 18.3936ZM273.682 13.7598V24.5H270.025V10.7637H273.466L273.682 13.7598ZM277.82 10.6748L277.757 14.0645C277.579 14.0391 277.363 14.0179 277.109 14.001C276.864 13.9756 276.64 13.9629 276.437 13.9629C275.92 13.9629 275.472 14.0306 275.091 14.166C274.718 14.293 274.405 14.4834 274.151 14.7373C273.906 14.9912 273.72 15.3001 273.593 15.6641C273.474 16.028 273.407 16.4427 273.39 16.9082L272.653 16.6797C272.653 15.791 272.742 14.9743 272.92 14.2295C273.098 13.4762 273.356 12.8203 273.694 12.2617C274.041 11.7031 274.465 11.2715 274.964 10.9668C275.463 10.6621 276.035 10.5098 276.678 10.5098C276.881 10.5098 277.088 10.5267 277.3 10.5605C277.511 10.5859 277.685 10.624 277.82 10.6748ZM293.436 21.4023V15.2832C293.436 14.8431 293.364 14.4665 293.22 14.1533C293.076 13.8317 292.852 13.582 292.547 13.4043C292.251 13.2266 291.866 13.1377 291.392 13.1377C290.985 13.1377 290.634 13.2096 290.338 13.3535C290.042 13.4889 289.813 13.6878 289.652 13.9502C289.492 14.2041 289.411 14.5046 289.411 14.8516H285.755C285.755 14.2676 285.89 13.7132 286.161 13.1885C286.432 12.6637 286.826 12.2025 287.342 11.8047C287.858 11.3984 288.472 11.0811 289.183 10.8525C289.902 10.624 290.706 10.5098 291.595 10.5098C292.661 10.5098 293.609 10.6875 294.438 11.043C295.268 11.3984 295.92 11.9316 296.394 12.6426C296.876 13.3535 297.117 14.2422 297.117 15.3086V21.1865C297.117 21.9398 297.164 22.5576 297.257 23.04C297.35 23.514 297.485 23.9287 297.663 24.2842V24.5H293.969C293.791 24.1276 293.656 23.6621 293.562 23.1035C293.478 22.5365 293.436 21.9694 293.436 21.4023ZM293.918 16.1338L293.943 18.2031H291.899C291.417 18.2031 290.998 18.2581 290.643 18.3682C290.287 18.4782 289.995 18.6348 289.767 18.8379C289.538 19.0326 289.369 19.2611 289.259 19.5234C289.157 19.7858 289.106 20.0736 289.106 20.3867C289.106 20.6999 289.178 20.9834 289.322 21.2373C289.466 21.4827 289.674 21.6774 289.944 21.8213C290.215 21.9567 290.533 22.0244 290.896 22.0244C291.447 22.0244 291.925 21.9144 292.331 21.6943C292.737 21.4743 293.05 21.2035 293.271 20.8818C293.499 20.5602 293.618 20.2555 293.626 19.9678L294.591 21.5166C294.455 21.8636 294.269 22.2233 294.032 22.5957C293.804 22.9681 293.512 23.3193 293.156 23.6494C292.801 23.971 292.373 24.2376 291.874 24.4492C291.375 24.6523 290.782 24.7539 290.097 24.7539C289.225 24.7539 288.434 24.5804 287.723 24.2334C287.02 23.8779 286.462 23.3913 286.047 22.7734C285.641 22.1471 285.438 21.4362 285.438 20.6406C285.438 19.9212 285.573 19.2822 285.844 18.7236C286.115 18.165 286.512 17.6953 287.037 17.3145C287.57 16.9251 288.235 16.6331 289.03 16.4385C289.826 16.2354 290.748 16.1338 291.798 16.1338H293.918ZM305.61 21.8975C306.059 21.8975 306.457 21.8128 306.804 21.6436C307.151 21.4658 307.422 21.2204 307.616 20.9072C307.819 20.5856 307.925 20.209 307.934 19.7773H311.374C311.366 20.7422 311.107 21.6012 310.6 22.3545C310.092 23.0993 309.41 23.6875 308.556 24.1191C307.701 24.5423 306.744 24.7539 305.687 24.7539C304.62 24.7539 303.689 24.5762 302.894 24.2207C302.106 23.8652 301.451 23.3743 300.926 22.748C300.401 22.1133 300.007 21.377 299.745 20.5391C299.483 19.6927 299.352 18.7871 299.352 17.8223V17.4541C299.352 16.4808 299.483 15.5752 299.745 14.7373C300.007 13.891 300.401 13.1546 300.926 12.5283C301.451 11.8936 302.106 11.3984 302.894 11.043C303.681 10.6875 304.603 10.5098 305.661 10.5098C306.787 10.5098 307.773 10.7256 308.619 11.1572C309.474 11.5889 310.143 12.2067 310.625 13.0107C311.116 13.8063 311.366 14.75 311.374 15.8418H307.934C307.925 15.3848 307.828 14.9701 307.642 14.5977C307.464 14.2253 307.201 13.929 306.854 13.709C306.516 13.4805 306.097 13.3662 305.598 13.3662C305.064 13.3662 304.629 13.4805 304.29 13.709C303.951 13.929 303.689 14.2337 303.503 14.623C303.317 15.0039 303.186 15.4398 303.109 15.9307C303.042 16.4131 303.008 16.9209 303.008 17.4541V17.8223C303.008 18.3555 303.042 18.8675 303.109 19.3584C303.177 19.8493 303.304 20.2852 303.49 20.666C303.685 21.0469 303.951 21.3473 304.29 21.5674C304.629 21.7874 305.069 21.8975 305.61 21.8975ZM319.169 21.8975C319.618 21.8975 320.015 21.8128 320.362 21.6436C320.709 21.4658 320.98 21.2204 321.175 20.9072C321.378 20.5856 321.484 20.209 321.492 19.7773H324.933C324.924 20.7422 324.666 21.6012 324.158 22.3545C323.65 23.0993 322.969 23.6875 322.114 24.1191C321.259 24.5423 320.303 24.7539 319.245 24.7539C318.179 24.7539 317.248 24.5762 316.452 24.2207C315.665 23.8652 315.009 23.3743 314.484 22.748C313.96 22.1133 313.566 21.377 313.304 20.5391C313.041 19.6927 312.91 18.7871 312.91 17.8223V17.4541C312.91 16.4808 313.041 15.5752 313.304 14.7373C313.566 13.891 313.96 13.1546 314.484 12.5283C315.009 11.8936 315.665 11.3984 316.452 11.043C317.239 10.6875 318.162 10.5098 319.22 10.5098C320.345 10.5098 321.331 10.7256 322.178 11.1572C323.033 11.5889 323.701 12.2067 324.184 13.0107C324.674 13.8063 324.924 14.75 324.933 15.8418H321.492C321.484 15.3848 321.386 14.9701 321.2 14.5977C321.022 14.2253 320.76 13.929 320.413 13.709C320.075 13.4805 319.656 13.3662 319.156 13.3662C318.623 13.3662 318.187 13.4805 317.849 13.709C317.51 13.929 317.248 14.2337 317.062 14.623C316.875 15.0039 316.744 15.4398 316.668 15.9307C316.6 16.4131 316.566 16.9209 316.566 17.4541V17.8223C316.566 18.3555 316.6 18.8675 316.668 19.3584C316.736 19.8493 316.863 20.2852 317.049 20.666C317.243 21.0469 317.51 21.3473 317.849 21.5674C318.187 21.7874 318.627 21.8975 319.169 21.8975ZM326.469 17.7715V17.5049C326.469 16.4977 326.613 15.571 326.9 14.7246C327.188 13.8698 327.607 13.1292 328.157 12.5029C328.707 11.8766 329.384 11.39 330.188 11.043C330.993 10.6875 331.915 10.5098 332.956 10.5098C333.997 10.5098 334.924 10.6875 335.736 11.043C336.549 11.39 337.23 11.8766 337.78 12.5029C338.339 13.1292 338.762 13.8698 339.05 14.7246C339.338 15.571 339.481 16.4977 339.481 17.5049V17.7715C339.481 18.7702 339.338 19.6969 339.05 20.5518C338.762 21.3981 338.339 22.1387 337.78 22.7734C337.23 23.3997 336.553 23.8864 335.749 24.2334C334.945 24.5804 334.022 24.7539 332.981 24.7539C331.94 24.7539 331.014 24.5804 330.201 24.2334C329.397 23.8864 328.716 23.3997 328.157 22.7734C327.607 22.1387 327.188 21.3981 326.9 20.5518C326.613 19.6969 326.469 18.7702 326.469 17.7715ZM330.125 17.5049V17.7715C330.125 18.347 330.176 18.8844 330.277 19.3838C330.379 19.8831 330.54 20.3232 330.76 20.7041C330.988 21.0765 331.285 21.3685 331.648 21.5801C332.012 21.7917 332.457 21.8975 332.981 21.8975C333.489 21.8975 333.925 21.7917 334.289 21.5801C334.653 21.3685 334.945 21.0765 335.165 20.7041C335.385 20.3232 335.546 19.8831 335.647 19.3838C335.757 18.8844 335.812 18.347 335.812 17.7715V17.5049C335.812 16.9463 335.757 16.4215 335.647 15.9307C335.546 15.4313 335.381 14.9912 335.152 14.6104C334.932 14.221 334.64 13.9163 334.276 13.6963C333.912 13.4762 333.472 13.3662 332.956 13.3662C332.44 13.3662 332 13.4762 331.636 13.6963C331.28 13.9163 330.988 14.221 330.76 14.6104C330.54 14.9912 330.379 15.4313 330.277 15.9307C330.176 16.4215 330.125 16.9463 330.125 17.5049ZM349.854 21.2119V10.7637H353.51V24.5H350.069L349.854 21.2119ZM350.26 18.3936L351.339 18.3682C351.339 19.2822 351.233 20.1328 351.021 20.9199C350.81 21.6986 350.493 22.3757 350.069 22.9512C349.646 23.5182 349.113 23.9626 348.47 24.2842C347.826 24.5973 347.069 24.7539 346.197 24.7539C345.529 24.7539 344.911 24.6608 344.344 24.4746C343.785 24.2799 343.303 23.9795 342.896 23.5732C342.499 23.1585 342.186 22.6296 341.957 21.9863C341.737 21.3346 341.627 20.5518 341.627 19.6377V10.7637H345.283V19.6631C345.283 20.0693 345.33 20.4121 345.423 20.6914C345.524 20.9707 345.664 21.1992 345.842 21.377C346.02 21.5547 346.227 21.6816 346.464 21.7578C346.709 21.834 346.98 21.8721 347.276 21.8721C348.03 21.8721 348.622 21.7197 349.054 21.415C349.494 21.1104 349.803 20.6956 349.98 20.1709C350.167 19.6377 350.26 19.0452 350.26 18.3936ZM359.883 13.6963V24.5H356.227V10.7637H359.654L359.883 13.6963ZM359.35 17.1494H358.359C358.359 16.1338 358.491 15.2197 358.753 14.4072C359.015 13.5863 359.383 12.888 359.857 12.3125C360.331 11.7285 360.894 11.2842 361.546 10.9795C362.206 10.6663 362.942 10.5098 363.755 10.5098C364.398 10.5098 364.986 10.6029 365.52 10.7891C366.053 10.9753 366.51 11.2715 366.891 11.6777C367.28 12.084 367.576 12.6214 367.779 13.29C367.991 13.9587 368.097 14.7754 368.097 15.7402V24.5H364.415V15.7275C364.415 15.1182 364.33 14.6442 364.161 14.3057C363.992 13.9671 363.742 13.7301 363.412 13.5947C363.09 13.4508 362.693 13.3789 362.219 13.3789C361.728 13.3789 361.3 13.4762 360.937 13.6709C360.581 13.8656 360.285 14.1364 360.048 14.4834C359.819 14.8219 359.646 15.2197 359.527 15.6768C359.409 16.1338 359.35 16.6247 359.35 17.1494ZM377.605 10.7637V13.3535H369.607V10.7637H377.605ZM371.588 7.37402H375.244V20.3613C375.244 20.7591 375.295 21.0638 375.396 21.2754C375.507 21.487 375.667 21.6351 375.879 21.7197C376.09 21.7959 376.357 21.834 376.679 21.834C376.907 21.834 377.11 21.8255 377.288 21.8086C377.474 21.7832 377.631 21.7578 377.758 21.7324L377.771 24.4238C377.457 24.5254 377.119 24.6058 376.755 24.665C376.391 24.7243 375.989 24.7539 375.549 24.7539C374.745 24.7539 374.042 24.6227 373.441 24.3604C372.849 24.0895 372.392 23.6579 372.07 23.0654C371.749 22.473 371.588 21.6943 371.588 20.7295V7.37402Z" fill="#2C2C2C"/>
</svg>
