<svg width="365" height="12" viewBox="0 0 365 12" fill="none" xmlns="http://www.w3.org/2000/svg">
    <g opacity="0.5">
        <rect width="365" height="12" rx="4" fill="#2b64cd" style="fill:#2b64cd;fill-opacity:1;"/>
        <rect x="1.66992" y="-3.08142" width="3.22099" height="27.881" transform="rotate(-45 1.66992 -3.08142)" fill="#D9D9D9" style="fill:#D9D9D9;fill:color(display-p3 0.8510 0.8510 0.8510);fill-opacity:1;"/>
        <rect x="37" y="-3.08142" width="3.22099" height="27.881" transform="rotate(-45 37 -3.08142)" fill="#D9D9D9" style="fill:#D9D9D9;fill:color(display-p3 0.8510 0.8510 0.8510);fill-opacity:1;"/>
        <rect x="73" y="-3.08142" width="3.22099" height="27.881" transform="rotate(-45 73 -3.08142)" fill="#D9D9D9" style="fill:#D9D9D9;fill:color(display-p3 0.8510 0.8510 0.8510);fill-opacity:1;"/>
        <rect x="109" y="-3.08142" width="3.22099" height="27.881" transform="rotate(-45 109 -3.08142)" fill="#D9D9D9" style="fill:#D9D9D9;fill:color(display-p3 0.8510 0.8510 0.8510);fill-opacity:1;"/>
        <rect x="145" y="-3.08142" width="3.22099" height="27.881" transform="rotate(-45 145 -3.08142)" fill="#D9D9D9" style="fill:#D9D9D9;fill:color(display-p3 0.8510 0.8510 0.8510);fill-opacity:1;"/>
        <rect x="181" y="-3.08142" width="3.22099" height="27.881" transform="rotate(-45 181 -3.08142)" fill="#D9D9D9" style="fill:#D9D9D9;fill:color(display-p3 0.8510 0.8510 0.8510);fill-opacity:1;"/>
        <rect x="217" y="-3.08142" width="3.22099" height="27.881" transform="rotate(-45 217 -3.08142)" fill="#D9D9D9" style="fill:#D9D9D9;fill:color(display-p3 0.8510 0.8510 0.8510);fill-opacity:1;"/>
        <rect x="253" y="-3.08142" width="3.22099" height="27.881" transform="rotate(-45 253 -3.08142)" fill="#D9D9D9" style="fill:#D9D9D9;fill:color(display-p3 0.8510 0.8510 0.8510);fill-opacity:1;"/>
        <rect x="289" y="-3.08142" width="3.22099" height="27.881" transform="rotate(-45 289 -3.08142)" fill="#D9D9D9" style="fill:#D9D9D9;fill:color(display-p3 0.8510 0.8510 0.8510);fill-opacity:1;"/>
        <rect x="325" y="-3.08142" width="3.22099" height="27.881" transform="rotate(-45 325 -3.08142)" fill="#D9D9D9" style="fill:#D9D9D9;fill:color(display-p3 0.8510 0.8510 0.8510);fill-opacity:1;"/>
        <rect x="13" y="-3.08142" width="3.22099" height="27.881" transform="rotate(-45 13 -3.08142)" fill="#D9D9D9" style="fill:#D9D9D9;fill:color(display-p3 0.8510 0.8510 0.8510);fill-opacity:1;"/>
        <rect x="48.3301" y="-3.08142" width="3.22099" height="27.881" transform="rotate(-45 48.3301 -3.08142)" fill="#D9D9D9" style="fill:#D9D9D9;fill:color(display-p3 0.8510 0.8510 0.8510);fill-opacity:1;"/>
        <rect x="84.3301" y="-3.08142" width="3.22099" height="27.881" transform="rotate(-45 84.3301 -3.08142)" fill="#D9D9D9" style="fill:#D9D9D9;fill:color(display-p3 0.8510 0.8510 0.8510);fill-opacity:1;"/>
        <rect x="120.33" y="-3.08142" width="3.22099" height="27.881" transform="rotate(-45 120.33 -3.08142)" fill="#D9D9D9" style="fill:#D9D9D9;fill:color(display-p3 0.8510 0.8510 0.8510);fill-opacity:1;"/>
        <rect x="156.33" y="-3.08142" width="3.22099" height="27.881" transform="rotate(-45 156.33 -3.08142)" fill="#D9D9D9" style="fill:#D9D9D9;fill:color(display-p3 0.8510 0.8510 0.8510);fill-opacity:1;"/>
        <rect x="192.33" y="-3.08142" width="3.22099" height="27.881" transform="rotate(-45 192.33 -3.08142)" fill="#D9D9D9" style="fill:#D9D9D9;fill:color(display-p3 0.8510 0.8510 0.8510);fill-opacity:1;"/>
        <rect x="228.33" y="-3.08142" width="3.22099" height="27.881" transform="rotate(-45 228.33 -3.08142)" fill="#D9D9D9" style="fill:#D9D9D9;fill:color(display-p3 0.8510 0.8510 0.8510);fill-opacity:1;"/>
        <rect x="264.33" y="-3.08142" width="3.22099" height="27.881" transform="rotate(-45 264.33 -3.08142)" fill="#D9D9D9" style="fill:#D9D9D9;fill:color(display-p3 0.8510 0.8510 0.8510);fill-opacity:1;"/>
        <rect x="300.33" y="-3.08142" width="3.22099" height="27.881" transform="rotate(-45 300.33 -3.08142)" fill="#D9D9D9" style="fill:#D9D9D9;fill:color(display-p3 0.8510 0.8510 0.8510);fill-opacity:1;"/>
        <rect x="336.33" y="-3.08142" width="3.22099" height="27.881" transform="rotate(-45 336.33 -3.08142)" fill="#D9D9D9" style="fill:#D9D9D9;fill:color(display-p3 0.8510 0.8510 0.8510);fill-opacity:1;"/>
        <rect x="26" y="-2.72241" width="3.22099" height="27.881" transform="rotate(-45 26 -2.72241)" fill="#D9D9D9" style="fill:#D9D9D9;fill:color(display-p3 0.8510 0.8510 0.8510);fill-opacity:1;"/>
        <rect x="61.3301" y="-2.72241" width="3.22099" height="27.881" transform="rotate(-45 61.3301 -2.72241)" fill="#D9D9D9" style="fill:#D9D9D9;fill:color(display-p3 0.8510 0.8510 0.8510);fill-opacity:1;"/>
        <rect x="97.3301" y="-2.72241" width="3.22099" height="27.881" transform="rotate(-45 97.3301 -2.72241)" fill="#D9D9D9" style="fill:#D9D9D9;fill:color(display-p3 0.8510 0.8510 0.8510);fill-opacity:1;"/>
        <rect x="133.33" y="-2.72241" width="3.22099" height="27.881" transform="rotate(-45 133.33 -2.72241)" fill="#D9D9D9" style="fill:#D9D9D9;fill:color(display-p3 0.8510 0.8510 0.8510);fill-opacity:1;"/>
        <rect x="169.33" y="-2.72241" width="3.22099" height="27.881" transform="rotate(-45 169.33 -2.72241)" fill="#D9D9D9" style="fill:#D9D9D9;fill:color(display-p3 0.8510 0.8510 0.8510);fill-opacity:1;"/>
        <rect x="205.33" y="-2.72241" width="3.22099" height="27.881" transform="rotate(-45 205.33 -2.72241)" fill="#D9D9D9" style="fill:#D9D9D9;fill:color(display-p3 0.8510 0.8510 0.8510);fill-opacity:1;"/>
        <rect x="241.33" y="-2.72241" width="3.22099" height="27.881" transform="rotate(-45 241.33 -2.72241)" fill="#D9D9D9" style="fill:#D9D9D9;fill:color(display-p3 0.8510 0.8510 0.8510);fill-opacity:1;"/>
        <rect x="277.33" y="-2.72241" width="3.22099" height="27.881" transform="rotate(-45 277.33 -2.72241)" fill="#D9D9D9" style="fill:#D9D9D9;fill:color(display-p3 0.8510 0.8510 0.8510);fill-opacity:1;"/>
        <rect x="313.33" y="-2.72241" width="3.22099" height="27.881" transform="rotate(-45 313.33 -2.72241)" fill="#D9D9D9" style="fill:#D9D9D9;fill:color(display-p3 0.8510 0.8510 0.8510);fill-opacity:1;"/>
        <rect x="349.33" y="-2.72241" width="3.22099" height="27.881" transform="rotate(-45 349.33 -2.72241)" fill="#D9D9D9" style="fill:#D9D9D9;fill:color(display-p3 0.8510 0.8510 0.8510);fill-opacity:1;"/>
    </g>
</svg>
