<svg width="15" height="15" viewBox="0 0 15 15" fill="none" xmlns="http://www.w3.org/2000/svg">
<path fill-rule="evenodd" clip-rule="evenodd" d="M14.53 7.05322C14.53 3.1792 11.39 0.0380859 7.51001 0.0380859C3.63995 0.0380859 0.5 3.1792 0.5 7.05322C0.5 10.9282 3.63995 14.0691 7.51001 14.0691C11.39 14.0691 14.53 10.9282 14.53 7.05322ZM8.53003 8.57715L8.5 9.02808H6.48999C6.48999 8.49854 6.54303 8.39673 6.64905 8.19312C6.68115 8.13135 6.71814 8.0603 6.76001 7.96509C6.92999 7.55615 7.26001 7.15308 7.72998 6.7561L7.89447 6.61914C8.06976 6.47217 8.22681 6.33643 8.3598 6.21167C8.52997 6.052 8.66077 5.9104 8.73999 5.78711C8.89996 5.53809 8.96997 5.27515 8.96997 4.99902C8.96997 4.16626 8.57001 3.74902 7.75 3.74902C7.50171 3.74902 7.28583 3.79443 7.10242 3.8855C6.99774 3.9375 6.90363 4.00439 6.82007 4.08618C6.59009 4.31006 6.47009 4.62012 6.46008 5.01514H4.5C4.51001 4.07324 4.83008 3.33618 5.46008 2.8042C6.1001 2.27222 6.65002 2.0061 7.75 2.0061C8.85999 2.0061 9.72009 2.25806 10.3301 2.76318C10.9401 3.26904 11.25 3.98218 11.25 4.90405C11.25 5.323 11.1501 5.71802 10.9501 6.09106C10.7501 6.46313 10.34 6.87622 9.84998 7.3291L9.21008 7.89819C9.06006 8.0332 8.93536 8.09448 8.83496 8.1438C8.66754 8.22607 8.5675 8.27539 8.53003 8.57715ZM8.59009 11.0691C8.59009 10.4822 8.12 10.0061 7.53003 10.0061C6.94 10.0061 6.46997 10.4822 6.46997 11.0691C6.46997 11.6562 6.94 12.1311 7.53003 12.1311C8.12 12.1311 8.59009 11.6562 8.59009 11.0691Z" fill="#5F5F5F"/>
</svg>
