<svg width="128" height="130" viewBox="0 0 128 130" fill="none" xmlns="http://www.w3.org/2000/svg">
<path d="M15.9513 30.5H112.001C118.079 30.5 123 35.3336 123 41.3051V77.3215C123 83.2926 118.079 88.1266 112.001 88.1266H77.5563L82.2841 99.5L61.4913 88.1266H16.0006C9.92176 88.1266 5.00035 83.293 5.00035 77.3215V41.3051C4.95241 35.3812 9.87244 30.5 15.9517 30.5H15.9513Z" fill="#9B5C8F"/>
<path d="M12.8159 40.9038C13.4798 40.0221 14.4754 39.5578 15.8033 39.465C18.2215 39.2795 19.5967 40.3931 19.9289 42.8069C21.3989 52.5075 23.011 60.7224 24.718 67.4526L35.1027 48.0983C36.0514 46.3344 37.2366 45.4062 38.6592 45.3135C40.7462 45.1743 42.0266 46.4735 42.5479 49.212C43.7331 55.3851 45.2505 60.6297 47.0527 65.0852C48.2857 53.296 50.3722 44.8028 53.3122 39.5578C54.0235 38.2586 55.0665 37.6087 56.4417 37.5155C57.5326 37.4228 58.5287 37.7474 59.4291 38.4441C60.3304 39.1399 60.8043 40.0221 60.8991 41.0894C60.9465 41.9252 60.8043 42.6209 60.4252 43.3171C58.5756 46.659 57.0583 52.2751 55.8257 60.0722C54.64 67.6382 54.2131 73.5325 54.4979 77.7562C54.5926 78.9163 54.4031 79.9372 53.9287 80.8194C53.3596 81.8407 52.5061 82.3973 51.4157 82.4901C50.1827 82.5828 48.9022 82.0262 47.6696 80.773C43.2597 76.3638 39.7501 69.7732 37.1901 61.0007C34.1075 66.9415 31.8315 71.3971 30.3619 74.3675C27.5641 79.6125 25.1932 82.3045 23.2015 82.4437C21.9211 82.5365 20.8302 81.4687 19.882 79.2414C17.4637 73.1606 14.8555 61.4182 12.0576 44.0134C11.8681 42.8069 12.1524 41.7392 12.8163 40.9038H12.8159ZM114.722 48.1906C113.015 45.2666 110.502 43.5027 107.135 42.8065C106.234 42.6209 105.381 42.5282 104.574 42.5282C100.022 42.5282 96.3233 44.8487 93.4308 49.4903C90.9651 53.4352 89.7321 57.7984 89.7321 62.5787C89.7321 66.1525 90.4908 69.2152 92.0082 71.7686C93.7155 74.6926 96.2286 76.4561 99.5951 77.1528C100.496 77.3383 101.349 77.4311 102.156 77.4311C106.755 77.4311 110.454 75.1105 113.299 70.4689C115.765 66.4772 116.998 62.1144 116.998 57.3341C117.045 53.7139 116.239 50.6972 114.722 48.1906ZM108.747 61.0471C108.083 64.1103 106.898 66.3844 105.143 67.9165C103.768 69.1234 102.488 69.6336 101.302 69.4017C100.164 69.1697 99.2155 68.1948 98.5046 66.3849C97.9355 64.9461 97.6512 63.5073 97.6512 62.1612C97.6512 61.0007 97.7459 59.8407 97.9829 58.7729C98.4099 56.8703 99.2159 55.0136 100.496 53.2496C102.061 50.9755 103.721 50.0473 105.428 50.372C106.566 50.6039 107.515 51.5789 108.225 53.3892C108.795 54.828 109.079 56.2669 109.079 57.6129C109.079 58.8193 108.984 59.9798 108.747 61.0471ZM85.0373 48.1906C83.3299 45.2666 80.7695 43.5027 77.4504 42.8065C76.5495 42.6209 75.6961 42.5282 74.8895 42.5282C70.3374 42.5282 66.6387 44.8487 63.7461 49.4903C61.2805 53.4352 60.0475 57.7984 60.0475 62.5787C60.0475 66.1525 60.8061 69.2152 62.3235 71.7686C64.0309 74.6926 66.5439 76.4561 69.9104 77.1528C70.8113 77.3383 71.6648 77.4311 72.4713 77.4311C77.0708 77.4311 80.7691 75.1105 83.6147 70.4689C86.0803 66.4772 87.3134 62.1144 87.3134 57.3341C87.3134 53.7139 86.5547 50.6972 85.0373 48.1906ZM79.0152 61.0471C78.3513 64.1103 77.1656 66.3844 75.4108 67.9165C74.0361 69.1234 72.7556 69.6336 71.5704 69.4017C70.4322 69.1697 69.4835 68.1948 68.7726 66.3849C68.2035 64.9461 67.9192 63.5073 67.9192 62.1612C67.9192 61.0007 68.0139 59.8407 68.2509 58.7729C68.6778 56.8703 69.4839 55.0136 70.7639 53.2496C72.3291 50.9755 73.9887 50.0473 75.6956 50.372C76.8339 50.6039 77.7826 51.5789 78.4934 53.3892C79.0626 54.828 79.3469 56.2669 79.3469 57.6129C79.3943 58.8193 79.2521 59.9798 79.0152 61.0471Z" fill="white"/>
</svg>
