<svg width="128" height="128" viewBox="0 0 128 128" fill="none" xmlns="http://www.w3.org/2000/svg">
<path d="M113.769 67.5502C113.769 54.3493 108.525 41.6892 99.1904 32.3548C89.856 23.0204 77.1958 17.7764 63.995 17.7764C50.7942 17.7764 38.134 23.0204 28.7996 32.3548C19.4652 41.6892 14.2212 54.3493 14.2212 67.5502L63.995 67.5502H113.769Z" fill="#EBFF00"/>
<path fill-rule="evenodd" clip-rule="evenodd" d="M42.3247 22.5901L68.0421 67.134L61.619 70.8424L35.9016 26.2985L42.3247 22.5901Z" fill="#0B266B"/>
<path fill-rule="evenodd" clip-rule="evenodd" d="M14.2212 63.8421H113.769V71.259H14.2212V63.8421Z" fill="#0B266B"/>
<path fill-rule="evenodd" clip-rule="evenodd" d="M22.7456 39.4514L69.0626 66.1925L65.3541 72.6156L19.0372 45.8745L22.7456 39.4514Z" fill="#0B266B"/>
<path fill-rule="evenodd" clip-rule="evenodd" d="M108.961 45.8755L62.644 72.6166L58.9356 66.1934L105.253 39.4523L108.961 45.8755Z" fill="#0B266B"/>
<path fill-rule="evenodd" clip-rule="evenodd" d="M67.707 17.7764L67.707 71.2586L60.2902 71.2586L60.2902 17.7764L67.707 17.7764Z" fill="#0B266B"/>
<path fill-rule="evenodd" clip-rule="evenodd" d="M92.0933 26.2987L42.3194 112.509L35.8963 108.801L85.6701 22.5903L92.0933 26.2987Z" fill="#0B266B"/>
</svg>
