<svg width="33" height="34" viewBox="0 0 33 34" fill="none" xmlns="http://www.w3.org/2000/svg">
<path d="M33 17.3383C33 12.9622 31.2616 8.76541 28.1673 5.67106C25.0729 2.57671 20.8761 0.838318 16.5 0.838318C12.1239 0.838318 7.92709 2.5767 4.83274 5.67105C1.73839 8.7654 6.60769e-07 12.9622 0 17.3383L16.5 17.3383H33Z" fill="#EBFF00"/>
<path fill-rule="evenodd" clip-rule="evenodd" d="M9.31616 2.4341L17.8415 17.2004L15.7122 18.4297L7.18689 3.66344L9.31616 2.4341Z" fill="#0B266B"/>
<path fill-rule="evenodd" clip-rule="evenodd" d="M0 16.1091H33V18.5677H0V16.1091Z" fill="#0B266B"/>
<path fill-rule="evenodd" clip-rule="evenodd" d="M2.82593 8.02361L18.18 16.8883L16.9506 19.0176L1.59659 10.1529L2.82593 8.02361Z" fill="#0B266B"/>
<path fill-rule="evenodd" clip-rule="evenodd" d="M31.406 10.1531L16.052 19.0178L14.8226 16.8885L30.1767 8.02386L31.406 10.1531Z" fill="#0B266B"/>
<path fill-rule="evenodd" clip-rule="evenodd" d="M17.7307 0.838318L17.7307 18.5677L15.272 18.5677L15.272 0.838318L17.7307 0.838318Z" fill="#0B266B"/>
<path fill-rule="evenodd" clip-rule="evenodd" d="M25.8147 3.66344L9.3147 32.2423L7.18542 31.0129L23.6854 2.4341L25.8147 3.66344Z" fill="#0B266B"/>
</svg>
